<svg width="32" height="32" viewBox="0 0 32 32" fill="none" xmlns="http://www.w3.org/2000/svg">
  <!-- Earth surface -->
  <path d="M2 26 C2 26, 8 24, 16 24 C24 24, 30 26, 30 26 L30 30 L2 30 Z" fill="#4B5563"/>
  
  <!-- Troposphere -->
  <path d="M2 22 C2 22, 8 20, 16 20 C24 20, 30 22, 30 22 L30 26 C30 26, 24 24, 16 24 C8 24, 2 26, 2 26 Z" fill="#60A5FA" opacity="0.8"/>
  
  <!-- Stratosphere -->
  <path d="M2 18 C2 18, 8 16, 16 16 C24 16, 30 18, 30 18 L30 22 C30 22, 24 20, 16 20 C8 20, 2 22, 2 22 Z" fill="#34D399" opacity="0.7"/>
  
  <!-- Mesosphere -->
  <path d="M2 14 C2 14, 8 12, 16 12 C24 12, 30 14, 30 14 L30 18 C30 18, 24 16, 16 16 C8 16, 2 18, 2 18 Z" fill="#F59E0B" opacity="0.6"/>
  
  <!-- Thermosphere -->
  <path d="M2 10 C2 10, 8 8, 16 8 C24 8, 30 10, 30 10 L30 14 C30 14, 24 12, 16 12 C8 12, 2 14, 2 14 Z" fill="#EF4444" opacity="0.5"/>
  
  <!-- Altitude markers -->
  <circle cx="4" cy="24" r="1" fill="#F3F4F6" opacity="0.9"/>
  <circle cx="4" cy="20" r="1" fill="#F3F4F6" opacity="0.8"/>
  <circle cx="4" cy="16" r="1" fill="#F3F4F6" opacity="0.7"/>
  <circle cx="4" cy="12" r="1" fill="#F3F4F6" opacity="0.6"/>
  
  <!-- Pressure curve indicator -->
  <path d="M26 24 Q28 20, 28 16 Q28 12, 26 8" stroke="#F97316" stroke-width="2" fill="none" opacity="0.8"/>
</svg>